<mxfile host="app.diagrams.net" modified="2021-02-10T08:51:35.851Z" agent="5.0 (Windows NT 10.0; Win64; x64) AppleWebKit/537.36 (KHTML, like Gecko) Chrome/88.0.4324.146 Safari/537.36" etag="hE4BHDg4ybSwlJlkllaL" version="13.4.2" type="github">
  <diagram id="_YqfjPX831wR3p7C5Wxa" name="Page-1">
    <mxGraphModel dx="1038" dy="548" grid="1" gridSize="10" guides="1" tooltips="1" connect="1" arrows="1" fold="1" page="1" pageScale="1" pageWidth="827" pageHeight="1169" math="0" shadow="0">
      <root>
        <mxCell id="0" />
        <mxCell id="1" parent="0" />
        <mxCell id="_Y_TxBpE-vYmDx0YHJRh-1" value="乞丐版内容" style="ellipse;whiteSpace=wrap;html=1;" parent="1" vertex="1">
          <mxGeometry x="230" y="450" width="120" height="80" as="geometry" />
        </mxCell>
        <mxCell id="_Y_TxBpE-vYmDx0YHJRh-2" value="乞丐版平台能力" style="ellipse;whiteSpace=wrap;html=1;" parent="1" vertex="1">
          <mxGeometry x="430" y="350" width="120" height="80" as="geometry" />
        </mxCell>
        <mxCell id="_Y_TxBpE-vYmDx0YHJRh-3" value="乞丐版用户量" style="ellipse;whiteSpace=wrap;html=1;" parent="1" vertex="1">
          <mxGeometry x="210" y="230" width="120" height="80" as="geometry" />
        </mxCell>
        <mxCell id="_Y_TxBpE-vYmDx0YHJRh-4" value="乞丐版内容" style="ellipse;whiteSpace=wrap;html=1;" parent="1" vertex="1">
          <mxGeometry x="200" y="990" width="120" height="80" as="geometry" />
        </mxCell>
        <mxCell id="_Y_TxBpE-vYmDx0YHJRh-5" value="乞丐版平台能力" style="ellipse;whiteSpace=wrap;html=1;" parent="1" vertex="1">
          <mxGeometry x="380" y="820" width="120" height="80" as="geometry" />
        </mxCell>
        <mxCell id="_Y_TxBpE-vYmDx0YHJRh-6" value="乞丐版用户量/播放量" style="ellipse;whiteSpace=wrap;html=1;" parent="1" vertex="1">
          <mxGeometry x="203" y="700" width="120" height="80" as="geometry" />
        </mxCell>
        <mxCell id="_Y_TxBpE-vYmDx0YHJRh-7" value="新内容进入" style="ellipse;whiteSpace=wrap;html=1;aspect=fixed;" parent="1" vertex="1">
          <mxGeometry x="380" y="990" width="80" height="80" as="geometry" />
        </mxCell>
        <mxCell id="_Y_TxBpE-vYmDx0YHJRh-8" value="乞丐版内容" style="ellipse;whiteSpace=wrap;html=1;" parent="1" vertex="1">
          <mxGeometry x="943.5" y="1010" width="120" height="80" as="geometry" />
        </mxCell>
        <mxCell id="_Y_TxBpE-vYmDx0YHJRh-9" value="乞丐版平台能力" style="ellipse;whiteSpace=wrap;html=1;" parent="1" vertex="1">
          <mxGeometry x="1126.5" y="840" width="120" height="80" as="geometry" />
        </mxCell>
        <mxCell id="_Y_TxBpE-vYmDx0YHJRh-10" value="乞丐版用户量/播放量" style="ellipse;whiteSpace=wrap;html=1;" parent="1" vertex="1">
          <mxGeometry x="943.5" y="690" width="120" height="80" as="geometry" />
        </mxCell>
        <mxCell id="_Y_TxBpE-vYmDx0YHJRh-11" value="新内容进入" style="ellipse;whiteSpace=wrap;html=1;aspect=fixed;" parent="1" vertex="1">
          <mxGeometry x="1096.5" y="1000" width="80" height="80" as="geometry" />
        </mxCell>
        <mxCell id="_Y_TxBpE-vYmDx0YHJRh-12" value="" style="curved=1;endArrow=classic;html=1;entryX=0;entryY=0.5;entryDx=0;entryDy=0;" parent="1" source="_Y_TxBpE-vYmDx0YHJRh-11" target="_Y_TxBpE-vYmDx0YHJRh-13" edge="1">
          <mxGeometry width="50" height="50" relative="1" as="geometry">
            <mxPoint x="1216.5" y="1080" as="sourcePoint" />
            <mxPoint x="1366.5" y="1080" as="targetPoint" />
            <Array as="points">
              <mxPoint x="1266.5" y="1080" />
              <mxPoint x="1216.5" y="1030" />
            </Array>
          </mxGeometry>
        </mxCell>
        <mxCell id="_Y_TxBpE-vYmDx0YHJRh-13" value="流失" style="ellipse;whiteSpace=wrap;html=1;aspect=fixed;" parent="1" vertex="1">
          <mxGeometry x="1376.5" y="1000" width="80" height="80" as="geometry" />
        </mxCell>
        <mxCell id="_Y_TxBpE-vYmDx0YHJRh-14" value="屌丝版内容" style="ellipse;whiteSpace=wrap;html=1;" parent="1" vertex="1">
          <mxGeometry x="233" y="1540" width="120" height="80" as="geometry" />
        </mxCell>
        <mxCell id="_Y_TxBpE-vYmDx0YHJRh-15" value="屌丝版平台能力" style="ellipse;whiteSpace=wrap;html=1;" parent="1" vertex="1">
          <mxGeometry x="413" y="1370" width="120" height="80" as="geometry" />
        </mxCell>
        <mxCell id="_Y_TxBpE-vYmDx0YHJRh-16" value="屌丝版用户量/播放量" style="ellipse;whiteSpace=wrap;html=1;" parent="1" vertex="1">
          <mxGeometry x="230" y="1220" width="120" height="80" as="geometry" />
        </mxCell>
        <mxCell id="_Y_TxBpE-vYmDx0YHJRh-17" value="新内容进入" style="ellipse;whiteSpace=wrap;html=1;aspect=fixed;" parent="1" vertex="1">
          <mxGeometry x="433" y="1540" width="80" height="80" as="geometry" />
        </mxCell>
        <mxCell id="_Y_TxBpE-vYmDx0YHJRh-21" value="土豪版用户量/播放量" style="ellipse;whiteSpace=wrap;html=1;" parent="1" vertex="1">
          <mxGeometry x="930" y="1230" width="120" height="80" as="geometry" />
        </mxCell>
        <mxCell id="_Y_TxBpE-vYmDx0YHJRh-22" value="土豪版平台能力" style="ellipse;whiteSpace=wrap;html=1;" parent="1" vertex="1">
          <mxGeometry x="1140" y="1371" width="120" height="80" as="geometry" />
        </mxCell>
        <mxCell id="_Y_TxBpE-vYmDx0YHJRh-23" value="土豪版内容" style="ellipse;whiteSpace=wrap;html=1;" parent="1" vertex="1">
          <mxGeometry x="930" y="1521" width="120" height="80" as="geometry" />
        </mxCell>
        <mxCell id="_Y_TxBpE-vYmDx0YHJRh-24" value="" style="endArrow=classic;html=1;entryX=0.5;entryY=0;entryDx=0;entryDy=0;exitX=0.5;exitY=1;exitDx=0;exitDy=0;" parent="1" source="_Y_TxBpE-vYmDx0YHJRh-6" target="_Y_TxBpE-vYmDx0YHJRh-4" edge="1">
          <mxGeometry width="50" height="50" relative="1" as="geometry">
            <mxPoint x="230" y="900" as="sourcePoint" />
            <mxPoint x="280" y="850" as="targetPoint" />
          </mxGeometry>
        </mxCell>
        <mxCell id="_Y_TxBpE-vYmDx0YHJRh-25" value="" style="endArrow=classic;html=1;entryX=1;entryY=0.5;entryDx=0;entryDy=0;exitX=0.5;exitY=0;exitDx=0;exitDy=0;" parent="1" source="_Y_TxBpE-vYmDx0YHJRh-5" target="_Y_TxBpE-vYmDx0YHJRh-6" edge="1">
          <mxGeometry width="50" height="50" relative="1" as="geometry">
            <mxPoint x="320" y="940" as="sourcePoint" />
            <mxPoint x="370" y="890" as="targetPoint" />
          </mxGeometry>
        </mxCell>
        <mxCell id="_Y_TxBpE-vYmDx0YHJRh-26" value="" style="endArrow=classic;html=1;entryX=0.5;entryY=1;entryDx=0;entryDy=0;exitX=1;exitY=0;exitDx=0;exitDy=0;" parent="1" source="_Y_TxBpE-vYmDx0YHJRh-4" target="_Y_TxBpE-vYmDx0YHJRh-5" edge="1">
          <mxGeometry width="50" height="50" relative="1" as="geometry">
            <mxPoint x="310" y="900" as="sourcePoint" />
            <mxPoint x="227.57359312880726" y="1011.7157287525383" as="targetPoint" />
          </mxGeometry>
        </mxCell>
        <mxCell id="_Y_TxBpE-vYmDx0YHJRh-27" value="" style="endArrow=classic;html=1;entryX=0.5;entryY=1;entryDx=0;entryDy=0;" parent="1" source="_Y_TxBpE-vYmDx0YHJRh-8" target="_Y_TxBpE-vYmDx0YHJRh-9" edge="1">
          <mxGeometry width="50" height="50" relative="1" as="geometry">
            <mxPoint x="548.9264068711927" y="1031.7157287525379" as="sourcePoint" />
            <mxPoint x="686.5" y="930" as="targetPoint" />
          </mxGeometry>
        </mxCell>
        <mxCell id="_Y_TxBpE-vYmDx0YHJRh-28" value="" style="endArrow=classic;html=1;entryX=1;entryY=0.5;entryDx=0;entryDy=0;exitX=0.5;exitY=0;exitDx=0;exitDy=0;" parent="1" source="_Y_TxBpE-vYmDx0YHJRh-9" target="_Y_TxBpE-vYmDx0YHJRh-10" edge="1">
          <mxGeometry width="50" height="50" relative="1" as="geometry">
            <mxPoint x="548.9264068711927" y="1031.7157287525379" as="sourcePoint" />
            <mxPoint x="686.5" y="930" as="targetPoint" />
          </mxGeometry>
        </mxCell>
        <mxCell id="_Y_TxBpE-vYmDx0YHJRh-29" value="" style="endArrow=classic;html=1;entryX=0.5;entryY=0;entryDx=0;entryDy=0;exitX=0.5;exitY=1;exitDx=0;exitDy=0;" parent="1" source="_Y_TxBpE-vYmDx0YHJRh-10" target="_Y_TxBpE-vYmDx0YHJRh-8" edge="1">
          <mxGeometry width="50" height="50" relative="1" as="geometry">
            <mxPoint x="509.5" y="810" as="sourcePoint" />
            <mxPoint x="506.5" y="1020" as="targetPoint" />
          </mxGeometry>
        </mxCell>
        <mxCell id="_Y_TxBpE-vYmDx0YHJRh-30" value="" style="endArrow=classic;html=1;entryX=0.5;entryY=1;entryDx=0;entryDy=0;exitX=1;exitY=0;exitDx=0;exitDy=0;" parent="1" source="_Y_TxBpE-vYmDx0YHJRh-14" target="_Y_TxBpE-vYmDx0YHJRh-15" edge="1">
          <mxGeometry width="50" height="50" relative="1" as="geometry">
            <mxPoint x="340" y="1490" as="sourcePoint" />
            <mxPoint x="390" y="1440" as="targetPoint" />
          </mxGeometry>
        </mxCell>
        <mxCell id="_Y_TxBpE-vYmDx0YHJRh-32" value="" style="endArrow=classic;html=1;entryX=1;entryY=0.5;entryDx=0;entryDy=0;exitX=0.5;exitY=0;exitDx=0;exitDy=0;" parent="1" source="_Y_TxBpE-vYmDx0YHJRh-15" target="_Y_TxBpE-vYmDx0YHJRh-16" edge="1">
          <mxGeometry width="50" height="50" relative="1" as="geometry">
            <mxPoint x="345.42640687119274" y="1561.7157287525379" as="sourcePoint" />
            <mxPoint x="483" y="1460" as="targetPoint" />
          </mxGeometry>
        </mxCell>
        <mxCell id="_Y_TxBpE-vYmDx0YHJRh-33" value="" style="endArrow=classic;html=1;entryX=0.5;entryY=0;entryDx=0;entryDy=0;exitX=0.5;exitY=1;exitDx=0;exitDy=0;" parent="1" source="_Y_TxBpE-vYmDx0YHJRh-16" target="_Y_TxBpE-vYmDx0YHJRh-14" edge="1">
          <mxGeometry width="50" height="50" relative="1" as="geometry">
            <mxPoint x="213" y="1300" as="sourcePoint" />
            <mxPoint x="210" y="1510" as="targetPoint" />
          </mxGeometry>
        </mxCell>
        <mxCell id="_Y_TxBpE-vYmDx0YHJRh-34" value="" style="endArrow=classic;html=1;entryX=0.5;entryY=1;entryDx=0;entryDy=0;exitX=1;exitY=0;exitDx=0;exitDy=0;" parent="1" source="_Y_TxBpE-vYmDx0YHJRh-23" target="_Y_TxBpE-vYmDx0YHJRh-22" edge="1">
          <mxGeometry width="50" height="50" relative="1" as="geometry">
            <mxPoint x="820" y="1551" as="sourcePoint" />
            <mxPoint x="960" y="1431" as="targetPoint" />
          </mxGeometry>
        </mxCell>
        <mxCell id="_Y_TxBpE-vYmDx0YHJRh-35" value="" style="endArrow=classic;html=1;entryX=1;entryY=0.5;entryDx=0;entryDy=0;exitX=0.5;exitY=0;exitDx=0;exitDy=0;" parent="1" source="_Y_TxBpE-vYmDx0YHJRh-22" target="_Y_TxBpE-vYmDx0YHJRh-21" edge="1">
          <mxGeometry width="50" height="50" relative="1" as="geometry">
            <mxPoint x="1023" y="1446" as="sourcePoint" />
            <mxPoint x="900" y="1336" as="targetPoint" />
          </mxGeometry>
        </mxCell>
        <mxCell id="_Y_TxBpE-vYmDx0YHJRh-36" value="" style="endArrow=classic;html=1;entryX=0.5;entryY=0;entryDx=0;entryDy=0;exitX=0.5;exitY=1;exitDx=0;exitDy=0;" parent="1" source="_Y_TxBpE-vYmDx0YHJRh-21" target="_Y_TxBpE-vYmDx0YHJRh-23" edge="1">
          <mxGeometry width="50" height="50" relative="1" as="geometry">
            <mxPoint x="880" y="1321" as="sourcePoint" />
            <mxPoint x="213" y="1531" as="targetPoint" />
          </mxGeometry>
        </mxCell>
        <mxCell id="_Y_TxBpE-vYmDx0YHJRh-38" value="" style="endArrow=classic;html=1;entryX=1;entryY=0.5;entryDx=0;entryDy=0;exitX=0;exitY=0.5;exitDx=0;exitDy=0;" parent="1" source="_Y_TxBpE-vYmDx0YHJRh-17" target="_Y_TxBpE-vYmDx0YHJRh-14" edge="1">
          <mxGeometry width="50" height="50" relative="1" as="geometry">
            <mxPoint x="410" y="1720" as="sourcePoint" />
            <mxPoint x="460" y="1670" as="targetPoint" />
          </mxGeometry>
        </mxCell>
        <mxCell id="_Y_TxBpE-vYmDx0YHJRh-39" value="新匹配能力" style="ellipse;whiteSpace=wrap;html=1;aspect=fixed;" parent="1" vertex="1">
          <mxGeometry x="610" y="1371" width="80" height="80" as="geometry" />
        </mxCell>
        <mxCell id="_Y_TxBpE-vYmDx0YHJRh-40" value="" style="endArrow=classic;html=1;entryX=1;entryY=0.5;entryDx=0;entryDy=0;exitX=0;exitY=0.5;exitDx=0;exitDy=0;" parent="1" source="_Y_TxBpE-vYmDx0YHJRh-39" target="_Y_TxBpE-vYmDx0YHJRh-15" edge="1">
          <mxGeometry width="50" height="50" relative="1" as="geometry">
            <mxPoint x="443" y="1590" as="sourcePoint" />
            <mxPoint x="363" y="1590" as="targetPoint" />
          </mxGeometry>
        </mxCell>
        <mxCell id="_Y_TxBpE-vYmDx0YHJRh-41" value="新用户增长" style="ellipse;whiteSpace=wrap;html=1;aspect=fixed;" parent="1" vertex="1">
          <mxGeometry x="490" y="1220" width="80" height="80" as="geometry" />
        </mxCell>
        <mxCell id="_Y_TxBpE-vYmDx0YHJRh-42" value="" style="endArrow=classic;html=1;entryX=1;entryY=0.5;entryDx=0;entryDy=0;exitX=0;exitY=0.5;exitDx=0;exitDy=0;" parent="1" source="_Y_TxBpE-vYmDx0YHJRh-41" target="_Y_TxBpE-vYmDx0YHJRh-16" edge="1">
          <mxGeometry width="50" height="50" relative="1" as="geometry">
            <mxPoint x="620" y="1421" as="sourcePoint" />
            <mxPoint x="543" y="1420" as="targetPoint" />
          </mxGeometry>
        </mxCell>
        <mxCell id="GnxOr5zdsawewWnfqmuB-1" value="策略团队" style="ellipse;whiteSpace=wrap;html=1;aspect=fixed;" vertex="1" parent="1">
          <mxGeometry x="310" y="1800" width="80" height="80" as="geometry" />
        </mxCell>
        <mxCell id="GnxOr5zdsawewWnfqmuB-2" value="" style="endArrow=classic;html=1;" edge="1" parent="1">
          <mxGeometry width="50" height="50" relative="1" as="geometry">
            <mxPoint x="280" y="1900" as="sourcePoint" />
            <mxPoint x="760" y="1900" as="targetPoint" />
          </mxGeometry>
        </mxCell>
        <mxCell id="GnxOr5zdsawewWnfqmuB-7" value="人员线" style="edgeLabel;html=1;align=center;verticalAlign=middle;resizable=0;points=[];" vertex="1" connectable="0" parent="GnxOr5zdsawewWnfqmuB-2">
          <mxGeometry x="0.155" y="-1" relative="1" as="geometry">
            <mxPoint as="offset" />
          </mxGeometry>
        </mxCell>
        <mxCell id="GnxOr5zdsawewWnfqmuB-3" value="" style="endArrow=classic;html=1;" edge="1" parent="1">
          <mxGeometry width="50" height="50" relative="1" as="geometry">
            <mxPoint x="280" y="2020" as="sourcePoint" />
            <mxPoint x="760" y="2020" as="targetPoint" />
          </mxGeometry>
        </mxCell>
        <mxCell id="GnxOr5zdsawewWnfqmuB-5" value="架构线" style="edgeLabel;html=1;align=center;verticalAlign=middle;resizable=0;points=[];" vertex="1" connectable="0" parent="GnxOr5zdsawewWnfqmuB-3">
          <mxGeometry x="0.13" relative="1" as="geometry">
            <mxPoint as="offset" />
          </mxGeometry>
        </mxCell>
        <mxCell id="GnxOr5zdsawewWnfqmuB-4" value="离线实时化" style="ellipse;whiteSpace=wrap;html=1;aspect=fixed;" vertex="1" parent="1">
          <mxGeometry x="310" y="1930" width="80" height="80" as="geometry" />
        </mxCell>
        <mxCell id="GnxOr5zdsawewWnfqmuB-8" value="" style="endArrow=classic;html=1;" edge="1" parent="1">
          <mxGeometry width="50" height="50" relative="1" as="geometry">
            <mxPoint x="280" y="2160" as="sourcePoint" />
            <mxPoint x="760" y="2160" as="targetPoint" />
          </mxGeometry>
        </mxCell>
        <mxCell id="GnxOr5zdsawewWnfqmuB-9" value="算法线" style="edgeLabel;html=1;align=center;verticalAlign=middle;resizable=0;points=[];" vertex="1" connectable="0" parent="GnxOr5zdsawewWnfqmuB-8">
          <mxGeometry x="0.13" relative="1" as="geometry">
            <mxPoint as="offset" />
          </mxGeometry>
        </mxCell>
        <mxCell id="GnxOr5zdsawewWnfqmuB-10" value="item冷启动" style="ellipse;whiteSpace=wrap;html=1;aspect=fixed;" vertex="1" parent="1">
          <mxGeometry x="310" y="2070" width="80" height="80" as="geometry" />
        </mxCell>
        <mxCell id="GnxOr5zdsawewWnfqmuB-11" value="用户冷启动" style="ellipse;whiteSpace=wrap;html=1;aspect=fixed;" vertex="1" parent="1">
          <mxGeometry x="420" y="2070" width="80" height="80" as="geometry" />
        </mxCell>
        <mxCell id="GnxOr5zdsawewWnfqmuB-12" value="特征选择" style="ellipse;whiteSpace=wrap;html=1;aspect=fixed;" vertex="1" parent="1">
          <mxGeometry x="540" y="2070" width="80" height="80" as="geometry" />
        </mxCell>
        <mxCell id="GnxOr5zdsawewWnfqmuB-13" value="用户" style="ellipse;whiteSpace=wrap;html=1;aspect=fixed;" vertex="1" parent="1">
          <mxGeometry x="300" y="2420" width="80" height="80" as="geometry" />
        </mxCell>
        <mxCell id="GnxOr5zdsawewWnfqmuB-14" value="创造者" style="ellipse;whiteSpace=wrap;html=1;aspect=fixed;" vertex="1" parent="1">
          <mxGeometry x="533" y="2420" width="80" height="80" as="geometry" />
        </mxCell>
        <mxCell id="GnxOr5zdsawewWnfqmuB-15" value="平台能力" style="ellipse;whiteSpace=wrap;html=1;aspect=fixed;" vertex="1" parent="1">
          <mxGeometry x="430" y="2300" width="80" height="80" as="geometry" />
        </mxCell>
        <mxCell id="GnxOr5zdsawewWnfqmuB-16" value="流失" style="ellipse;whiteSpace=wrap;html=1;aspect=fixed;" vertex="1" parent="1">
          <mxGeometry x="710" y="2350" width="50" height="50" as="geometry" />
        </mxCell>
        <mxCell id="GnxOr5zdsawewWnfqmuB-17" value="" style="endArrow=classic;html=1;entryX=0;entryY=0.5;entryDx=0;entryDy=0;exitX=1;exitY=0;exitDx=0;exitDy=0;curved=1;" edge="1" parent="1" source="GnxOr5zdsawewWnfqmuB-14" target="GnxOr5zdsawewWnfqmuB-16">
          <mxGeometry width="50" height="50" relative="1" as="geometry">
            <mxPoint x="600" y="2420" as="sourcePoint" />
            <mxPoint x="650" y="2370" as="targetPoint" />
            <Array as="points">
              <mxPoint x="630" y="2370" />
            </Array>
          </mxGeometry>
        </mxCell>
        <mxCell id="GnxOr5zdsawewWnfqmuB-18" value="流失" style="ellipse;whiteSpace=wrap;html=1;aspect=fixed;" vertex="1" parent="1">
          <mxGeometry x="153" y="2338" width="50" height="50" as="geometry" />
        </mxCell>
        <mxCell id="GnxOr5zdsawewWnfqmuB-20" value="" style="endArrow=classic;html=1;entryX=1;entryY=0.5;entryDx=0;entryDy=0;exitX=0;exitY=0;exitDx=0;exitDy=0;curved=1;" edge="1" parent="1" source="GnxOr5zdsawewWnfqmuB-13" target="GnxOr5zdsawewWnfqmuB-18">
          <mxGeometry width="50" height="50" relative="1" as="geometry">
            <mxPoint x="250" y="2440" as="sourcePoint" />
            <mxPoint x="300" y="2390" as="targetPoint" />
            <Array as="points">
              <mxPoint x="280" y="2363" />
            </Array>
          </mxGeometry>
        </mxCell>
      </root>
    </mxGraphModel>
  </diagram>
</mxfile>
